<?xml version="1.0" standalone="no"?><svg xmlns="http://www.w3.org/2000/svg" viewBox="0 0 1440 320"><path fill="#ffd700" fill-opacity="1" d="M0,96L9.6,90.7C19.2,85,38,75,58,85.3C76.8,96,96,128,115,138.7C134.4,149,154,139,173,133.3C192,128,211,128,230,144C249.6,160,269,192,288,224C307.2,256,326,288,346,277.3C364.8,267,384,213,403,170.7C422.4,128,442,96,461,101.3C480,107,499,149,518,192C537.6,235,557,277,576,288C595.2,299,614,277,634,229.3C652.8,181,672,107,691,112C710.4,117,730,203,749,208C768,213,787,139,806,112C825.6,85,845,107,864,117.3C883.2,128,902,128,922,144C940.8,160,960,192,979,208C998.4,224,1018,224,1037,240C1056,256,1075,288,1094,282.7C1113.6,277,1133,235,1152,213.3C1171.2,192,1190,192,1210,208C1228.8,224,1248,256,1267,272C1286.4,288,1306,288,1325,261.3C1344,235,1363,181,1382,144C1401.6,107,1421,85,1430,74.7L1440,64L1440,320L1430.4,320C1420.8,320,1402,320,1382,320C1363.2,320,1344,320,1325,320C1305.6,320,1286,320,1267,320C1248,320,1229,320,1210,320C1190.4,320,1171,320,1152,320C1132.8,320,1114,320,1094,320C1075.2,320,1056,320,1037,320C1017.6,320,998,320,979,320C960,320,941,320,922,320C902.4,320,883,320,864,320C844.8,320,826,320,806,320C787.2,320,768,320,749,320C729.6,320,710,320,691,320C672,320,653,320,634,320C614.4,320,595,320,576,320C556.8,320,538,320,518,320C499.2,320,480,320,461,320C441.6,320,422,320,403,320C384,320,365,320,346,320C326.4,320,307,320,288,320C268.8,320,250,320,230,320C211.2,320,192,320,173,320C153.6,320,134,320,115,320C96,320,77,320,58,320C38.4,320,19,320,10,320L0,320Z"></path></svg>